<svg xmlns="http://www.w3.org/2000/svg" width="20" height="22.857" viewBox="0 0 20 22.857">
  <g id="Discord" transform="translate(-35 -20)">
    <path id="Path_4" data-name="Path 4" d="M95.366,103.9a1.273,1.273,0,1,0,1.166,1.269A1.218,1.218,0,0,0,95.366,103.9Zm4.171,0a1.273,1.273,0,1,0,1.166,1.269A1.218,1.218,0,0,0,99.537,103.9Z" transform="translate(-52.434 -74.311)" fill="#2f2e31"/>
    <path id="Path_5" data-name="Path 5" d="M52.657,20H37.343A2.349,2.349,0,0,0,35,22.354V37.806a2.349,2.349,0,0,0,2.343,2.354H50.3L49.7,38.046l1.463,1.36,1.383,1.28L55,42.857v-20.5A2.349,2.349,0,0,0,52.657,20ZM48.246,34.926s-.411-.491-.754-.926a3.606,3.606,0,0,0,2.069-1.36,6.54,6.54,0,0,1-1.314.674,7.522,7.522,0,0,1-1.657.491,8.006,8.006,0,0,1-2.96-.011,9.593,9.593,0,0,1-1.68-.491,6.7,6.7,0,0,1-.834-.389c-.034-.023-.069-.034-.1-.057a.158.158,0,0,1-.046-.034c-.206-.114-.32-.194-.32-.194a3.554,3.554,0,0,0,2,1.349c-.343.434-.766.949-.766.949a4.144,4.144,0,0,1-3.486-1.737,15.3,15.3,0,0,1,1.646-6.663,5.651,5.651,0,0,1,3.211-1.2l.114.137a7.71,7.71,0,0,0-3.006,1.5s.251-.137.674-.331a8.582,8.582,0,0,1,2.594-.72,1.126,1.126,0,0,1,.194-.023,9.67,9.67,0,0,1,2.309-.023,9.316,9.316,0,0,1,3.44,1.1,7.606,7.606,0,0,0-2.846-1.451l.16-.183a5.651,5.651,0,0,1,3.211,1.2,15.3,15.3,0,0,1,1.646,6.663A4.178,4.178,0,0,1,48.246,34.926Z" transform="translate(0 0)" fill="#2f2e31"/>
  </g>
</svg>
