<svg xmlns="http://www.w3.org/2000/svg" width="20" height="20" viewBox="0 0 20 20">
  <path id="Instagram" d="M102.135,2H89.865A3.87,3.87,0,0,0,86,5.865v12.27A3.87,3.87,0,0,0,89.865,22h12.27A3.869,3.869,0,0,0,106,18.135V5.865A3.869,3.869,0,0,0,102.135,2Zm1.109,2.306.442,0v3.39l-3.38.011-.012-3.39,2.95-.008Zm-10.1,5.641A3.515,3.515,0,1,1,92.48,12a3.516,3.516,0,0,1,.666-2.053Zm10.906,8.188a1.919,1.919,0,0,1-1.917,1.917H89.865a1.919,1.919,0,0,1-1.917-1.917V9.947h2.987a5.468,5.468,0,1,0,10.131,0h2.986v8.188Z" transform="translate(-86 -2)" fill="#2f2e31" fill-rule="evenodd"/>
</svg>
