<svg xmlns="http://www.w3.org/2000/svg" width="19" height="19" viewBox="0 0 19 19">
  <path id="Talk_Bubble" data-name="Talk Bubble" d="M333.062,489.5a1.188,1.188,0,1,1,1.188-1.188A1.188,1.188,0,0,1,333.062,489.5Zm-3.562,0a1.188,1.188,0,1,1,1.188-1.188A1.188,1.188,0,0,1,329.5,489.5Zm-3.562,0a1.188,1.188,0,1,1,1.188-1.188A1.188,1.188,0,0,1,325.937,489.5Zm-3.562-9.5h14.25A2.375,2.375,0,0,1,339,482.375v14.25a2.375,2.375,0,0,1-3.692,1.976l-2.969-1.976h-9.964A2.375,2.375,0,0,1,320,494.25V482.375A2.375,2.375,0,0,1,322.375,480Zm0,14.25h10.687l3.563,2.375v-14.25h-14.25Z" transform="translate(-320 -480)" fill="#7b42ff" fill-rule="evenodd"/>
</svg>
