<svg xmlns="http://www.w3.org/2000/svg" width="20" height="17.073" viewBox="0 0 20 17.073">
  <path id="Twitter" d="M60.644,5.7a4.28,4.28,0,0,0,1.8-2.384,7.977,7.977,0,0,1-2.606,1.046A4,4,0,0,0,56.846,3a4.209,4.209,0,0,0-4.1,4.31,4.487,4.487,0,0,0,.1.982,11.473,11.473,0,0,1-8.457-4.5,4.466,4.466,0,0,0-.555,2.168,4.373,4.373,0,0,0,1.825,3.588A3.968,3.968,0,0,1,43.8,9.005v.053A4.262,4.262,0,0,0,47.1,13.284a3.834,3.834,0,0,1-1.082.152,3.878,3.878,0,0,1-.771-.076,4.135,4.135,0,0,0,3.833,2.993,7.985,7.985,0,0,1-5.1,1.845A7.779,7.779,0,0,1,43,18.137a11.22,11.22,0,0,0,6.29,1.936c7.548,0,11.674-6.567,11.674-12.263,0-.187,0-.374-.011-.557A8.555,8.555,0,0,0,63,5.021,7.888,7.888,0,0,1,60.644,5.7Z" transform="translate(-43 -3)" fill="#2f2e31" fill-rule="evenodd"/>
</svg>
